{"title":"Shark Night 2011 R5 LiNE XviD - MiSTERE","uid":6809410,"size":2873986807,"categoryP":"video","categoryS":"movies","magnet":"?xt=urn:btih:aa28304c28fe27fe7ddf590bb67daf718822f5eb&amp;dn=Shark+Night+2011+R5+LiNE+XviD+-+MiSTERE&amp;tr=udp%3A%2F%2Ftracker.openbittorrent.com%3A80&amp;tr=udp%3A%2F%2Fopen.demonii.com%3A1337&amp;tr=udp%3A%2F%2Ftracker.coppersurfer.tk%3A6969&amp;tr=udp%3A%2F%2Fexodus.desync.com%3A6969","seeders":0,"leechers":0,"uploader":"TvTeam","files":100,"time":1320992926,"description":". \n &lt;a href=&quot;\nhttp://www.torrenting.com&quot; rel=&quot;nofollow&quot; target=&quot;_NEW&quot;&gt;\nhttp://www.torrenting.com&lt;/a&gt;          :     Once &amp; For all ;)\n\n\n               www . Torrenting . Com \n\n(((((((((((((= Enjoy No RAR releases =))))))))))))))))))))\n\n\n...................................NFO:....................................\n\n.Shark Night 2011 R5 LiNE XviD - MiSTERE\n &lt;a href=&quot;\nhttp://www.imdb.com/title/tt1633356/&quot; rel=&quot;nofollow&quot; target=&quot;_NEW&quot;&gt;\nhttp://www.imdb.com/title/tt1633356/&lt;/a&gt;\n\nsOURCE: Shark_Night_3D dvd5 RELiZLABS\n\nVideo\nID                               : 0\nFormat                           : MPEG-4 Visual\nFormat profile                   : Advanced Simple@L5\nFormat settings, BVOP            : 2\nFormat settings, QPel            : No\nFormat settings, GMC             : No warppoints\nFormat settings, Matrix          : Custom\nCodec ID                         : XVID\nCodec ID/Hint                    : XviD\nDuration                         : 1h 26mn\nBit rate                         : 1 806 Kbps\nWidth                            : 720 pixels\nHeight                           : 400 pixels\nDisplay aspect ratio             : 16:9\nFrame rate                       : 25.000 fps\nColor space                      : YUV\nChroma subsampling               : 4:2:0\nBit depth                        : 8 bits\nScan type                        : Progressive\nCompression mode                 : Lossy\nBits/(Pixel*Frame)               : 0.251\nStream size                      : 1.09 GiB (93%)\nWriting library                  : XviD 58\n\nAudio\nID                               : 1\nFormat                           : MPEG Audio\nFormat version                   : Version 1\nFormat profile                   : Layer 3\nMode                             : Joint stereo\nMode extension                   : MS Stereo\nCodec ID                         : 55\nCodec ID/Hint                    : MP3\nDuration                         : 1h 26mn\nBit rate mode                    : Constant\nBit rate                         : 128 Kbps\nChannel(s)                       : 2 channels\nSampling rate                    : 44.1 KHz\nCompression mode                 : Lossy\nStream size                      : 79.3 MiB (7%)\nAlignment                        : Split accross interleaves\nInterleave, duration             : 40 ms (1.00 video frame)\n\n\nCropped Resized Sharpened and Tweaked RGB\n\n\n[IMG]http://i.imgur.com/M6qDo.png[/IMG]\n[IMG]http://i.imgur.com/ImmHX.png[/IMG]\n[IMG]http://i.imgur.com/TW9OV.png[/IMG]\n[IMG]http://i.imgur.com/Q00Cm.png[/IMG]\n[IMG]http://i.imgur.com/CR8Dc.png[/IMG]\n[IMG]http://i.imgur.com/FXStR.png[/IMG]\n[IMG]http://i.imgur.com/b7Qzi.png[/IMG]\n\nGreetz to NOONE\nYOU ALL SUCK","torrent":{"xt":"urn:btih:aa28304c28fe27fe7ddf590bb67daf718822f5eb","amp;dn":"Shark+Night+2011+R5+LiNE+XviD+-+MiSTERE","amp;tr":["udp%3A%2F%2Ftracker.openbittorrent.com%3A80","udp%3A%2F%2Fopen.demonii.com%3A1337","udp%3A%2F%2Ftracker.coppersurfer.tk%3A6969","udp%3A%2F%2Fexodus.desync.com%3A6969"],"infoHash":"aa28304c28fe27fe7ddf590bb67daf718822f5eb","infoHashBuffer":{"type":"Buffer","data":[170,40,48,76,40,254,39,254,125,223,89,11,182,125,175,113,136,34,245,235]},"announce":[],"urlList":[]}}